<svg width="292" height="88" viewBox="0 0 292 88" fill="none" xmlns="http://www.w3.org/2000/svg">
<path fill-rule="evenodd" clip-rule="evenodd" d="M181.146 68.8147C164.18 81.3349 139.588 88 118.409 88C88.7225 88 61.9981 77.0282 41.7728 58.7555C40.1839 57.32 41.5986 55.3614 43.5155 56.4689C65.3399 69.1736 92.3308 76.8231 120.203 76.8231C139.004 76.8231 159.68 72.9163 178.696 64.8464C181.566 63.6262 183.965 66.7332 181.166 68.8147H181.146Z" fill="#E3E6EA"/>
<path fill-rule="evenodd" clip-rule="evenodd" d="M188.198 60.7551C186.025 57.9762 173.857 59.4323 168.383 60.0885C166.722 60.2834 166.466 58.8376 167.963 57.7916C177.671 50.9727 193.59 52.9415 195.436 55.2179C197.301 57.525 194.944 73.4803 185.851 81.099C184.446 82.268 183.124 81.6425 183.739 80.0941C185.789 74.9774 190.372 63.5236 188.198 60.7448V60.7551Z" fill="#E3E6EA"/>
<path fill-rule="evenodd" clip-rule="evenodd" d="M168.773 9.59776V2.96341C168.773 1.95852 169.541 1.28175 170.454 1.28175H200.161C201.115 1.28175 201.873 1.96877 201.873 2.95316V8.63389C201.873 9.58751 201.063 10.8283 199.638 12.8073L184.252 34.7816C189.961 34.6483 196.01 35.4994 201.197 38.4218C202.365 39.0781 202.683 40.0522 202.775 41.0058V48.0811C202.775 49.0552 201.709 50.1832 200.592 49.5987C191.448 44.8101 179.311 44.2871 169.203 49.6602C168.168 50.2139 167.091 49.0963 167.091 48.1221V41.3955C167.091 40.3188 167.112 38.4833 168.199 36.8427L186.025 11.2589H170.505C169.552 11.2589 168.793 10.5822 168.793 9.58751L168.773 9.59776ZM60.4195 51.0035H51.3781C50.517 50.9522 49.8302 50.296 49.7584 49.4757V3.07621C49.7584 2.14309 50.5477 1.4048 51.5113 1.4048H59.9274C60.809 1.44582 61.5163 2.11233 61.5676 2.96341V9.02354H61.7418C63.9355 3.16849 68.0667 0.430671 73.633 0.430671C79.1993 0.430671 82.8282 3.16849 85.3602 9.02354C87.5539 3.16849 92.5256 0.430671 97.8459 0.430671C101.639 0.430671 105.78 1.98928 108.302 5.50641C111.172 9.41319 110.578 15.0734 110.578 20.0569V49.3321C110.578 50.255 109.788 51.0035 108.825 51.0035H99.7936C98.8915 50.942 98.1739 50.2242 98.1739 49.3424V24.743C98.1739 22.7947 98.3379 17.9035 97.9176 16.0578C97.2411 12.9303 95.2216 12.0587 92.6076 12.0587C90.4139 12.0587 88.1382 13.5251 87.2053 15.863C86.2725 18.2111 86.3648 22.1077 86.3648 24.743V49.3321C86.3648 50.255 85.5857 51.0035 84.6221 51.0035H75.5909C74.6889 50.942 73.9713 50.2242 73.9713 49.3424V24.743C73.9713 19.5647 74.8016 11.9562 68.3947 11.9562C61.9879 11.9562 62.1519 19.3801 62.1519 24.743V49.3321C62.1519 50.255 61.3728 51.0035 60.4092 51.0035H60.4195ZM227.449 0.430671C240.858 0.430671 248.115 11.9562 248.115 26.5989C248.115 41.2417 240.099 51.9879 227.449 51.9879C214.8 51.9879 207.122 40.4624 207.122 26.117C207.122 11.7716 214.379 0.440924 227.449 0.440924V0.430671ZM227.531 9.90539C220.868 9.90539 220.448 18.9802 220.448 24.6507C220.448 30.3211 220.366 42.4209 227.449 42.4209C234.533 42.4209 234.789 32.6591 234.789 26.7015C234.789 22.7947 234.625 18.1086 233.436 14.3966C232.421 11.1769 230.402 9.90539 227.531 9.90539ZM265.511 51.0035H256.511C255.609 50.942 254.891 50.2242 254.891 49.3424V2.9224C254.953 2.07132 255.701 1.4048 256.614 1.4048H264.999C265.788 1.44582 266.434 1.97903 266.608 2.70706V9.80285H266.783C269.315 3.45561 272.851 0.430671 279.094 0.430671C283.143 0.430671 287.11 1.89699 289.642 5.89606C292 9.60802 292 15.8527 292 20.344V49.5372C291.897 50.3575 291.159 51.0035 290.268 51.0035H281.206C280.365 50.9522 279.699 50.337 279.596 49.5372V24.3431C279.596 19.2673 280.191 11.8434 273.948 11.8434C271.754 11.8434 269.725 13.3097 268.72 15.5554C267.459 18.3855 267.285 21.2156 267.285 24.3431V49.3218C267.264 50.2447 266.485 50.9933 265.522 50.9933L265.511 51.0035ZM145.093 28.8446C145.093 32.3719 145.175 35.3046 143.401 38.4321C141.966 40.9751 139.68 42.5439 137.148 42.5439C133.683 42.5439 131.654 39.8984 131.654 35.9916C131.654 28.2908 138.563 26.8963 145.093 26.8963V28.8548V28.8446ZM154.206 50.8805C153.611 51.4137 152.75 51.4547 152.074 51.0958C149.07 48.6041 148.537 47.4454 146.897 45.0767C141.935 50.1319 138.419 51.6495 131.992 51.6495C124.386 51.6495 118.461 46.9532 118.461 37.5605C118.461 30.2186 122.438 25.2351 128.097 22.7844C132.997 20.6311 139.844 20.2414 145.093 19.657V18.488C145.093 16.3347 145.267 13.7917 143.996 11.9357C142.899 10.2745 140.787 9.58751 138.922 9.58751C135.477 9.58751 132.412 11.3512 131.654 15.0119C131.5 15.822 130.905 16.632 130.085 16.673L121.331 15.7297C120.593 15.5656 119.773 14.9709 119.978 13.8429C121.987 3.20951 131.592 0 140.183 0C144.58 0 150.331 1.16896 153.796 4.50152C158.194 8.61338 157.773 14.089 157.773 20.0569V34.1356C157.773 38.3706 159.536 40.2265 161.187 42.5132C161.761 43.3335 161.894 44.3179 161.156 44.9126C159.311 46.461 156.031 49.3116 154.226 50.9215L154.206 50.901V50.8805ZM26.6219 28.8446C26.6219 32.3719 26.7039 35.3046 24.9305 38.4321C23.4953 40.9751 21.2093 42.5439 18.6773 42.5439C15.2125 42.5439 13.1828 39.8984 13.1828 35.9916C13.1828 28.2908 20.092 26.8963 26.6219 26.8963V28.8548V28.8446ZM35.735 50.8805C35.1405 51.4137 34.2691 51.4547 33.6028 51.0958C30.5993 48.6041 30.0662 47.4454 28.426 45.0767C23.4646 50.1319 19.9485 51.6495 13.5313 51.6495C5.92508 51.6495 0 46.9532 0 37.5605C0 30.2186 3.97739 25.2351 9.63595 22.7844C14.5359 20.6311 21.3836 20.2414 26.6321 19.657V18.488C26.6321 16.3347 26.7961 13.7917 25.5353 11.9357C24.4384 10.2745 22.3267 9.58751 20.461 9.58751C17.0167 9.58751 13.9516 11.3512 13.193 15.0119C13.0393 15.822 12.4447 16.632 11.6246 16.673L2.87028 15.7297C2.13221 15.5656 1.31213 14.9709 1.51715 13.8429C3.52635 3.20951 13.1213 0 21.7219 0C26.1196 0 31.8704 1.16896 35.3352 4.50152C39.7329 8.61338 39.3126 14.089 39.3126 20.0569V34.1356C39.3126 38.3706 41.0758 40.2265 42.7262 42.5132C43.3003 43.3335 43.4335 44.3179 42.6955 44.9126C40.8503 46.461 37.5699 49.3116 35.7658 50.9215L35.7453 50.901L35.735 50.8805Z" fill="#DDE0E4"/>
</svg>
