<svg width="292" height="80" viewBox="0 0 292 80" fill="none" xmlns="http://www.w3.org/2000/svg">
<path d="M42.6172 33.4819C40.3359 33.4819 38.5109 35.4552 38.5109 37.9075C38.5109 40.3599 40.3622 42.3332 42.6172 42.3332C44.8984 42.3332 46.7234 40.3599 46.7234 37.9075C46.7234 35.4552 44.8722 33.4819 42.6172 33.4819ZM27.9282 33.4819C25.647 33.4819 23.822 35.4552 23.822 37.9075C23.822 40.3599 25.6732 42.3332 27.9282 42.3332C30.2095 42.3332 32.0345 40.3599 32.0345 37.9075C32.0744 35.4529 30.2231 33.4819 27.9282 33.4819ZM62.1641 0H8.25014C3.70247 0 0 3.70247 0 8.25014V62.1641C0 66.7117 3.70247 70.4142 8.25014 70.4142H53.8751L51.7422 63.0503L56.8932 67.7987L61.7637 72.2654L70.4553 79.7913V8.25014C70.4245 3.70247 66.722 0 62.1641 0ZM46.6516 52.1266L43.9939 48.9077C49.2659 47.4192 51.2779 44.1593 51.2779 44.1593C49.6275 45.2463 48.0591 46.0105 46.6504 46.5341C44.6384 47.3781 42.7061 47.9028 40.815 48.2644C36.9517 48.9887 33.41 48.7891 30.392 48.2245C28.1107 47.7819 26.126 47.1785 24.4767 46.4942C23.4673 46.1051 22.4857 45.6478 21.5384 45.1254C21.4175 45.0456 21.2966 45.0045 21.1757 44.9247C21.0959 44.8847 21.0548 44.8448 21.016 44.8448C20.2917 44.4422 19.8891 44.1604 19.8891 44.1604C19.8891 44.1604 21.8202 47.3394 26.9313 48.8689C25.7245 50.3974 24.2349 52.1688 24.2349 52.1688C15.3414 51.887 11.9617 46.0927 11.9617 46.0927C11.9617 33.2549 17.7561 22.833 17.7561 22.833C23.5505 18.5272 29.0255 18.6469 29.0255 18.6469L29.4281 19.1294C22.1852 21.1825 18.8842 24.3615 18.8842 24.3615C18.8842 24.3615 19.7693 23.879 21.259 23.2345C25.5648 21.3434 28.9856 20.8597 30.384 20.6989C30.6258 20.659 30.8265 20.6191 31.0683 20.6191C33.7652 20.2677 36.4944 20.2409 39.1976 20.5392C43.021 20.9818 47.1249 22.1087 51.311 24.3626C51.311 24.3626 48.1321 21.3445 41.2906 19.2925L41.8541 18.6481C41.8541 18.6481 47.3679 18.5272 53.1235 22.8342C53.1235 22.8342 58.9178 33.2572 58.9178 46.0949C58.9178 46.055 55.537 51.8494 46.6447 52.1311L46.6516 52.1266ZM107.418 17.2234H94.0468V32.2341L102.94 40.2412V25.6641H107.689C110.707 25.6641 112.194 27.1127 112.194 29.4464V40.6062C112.194 42.94 110.785 44.5095 107.689 44.5095H94.0069V53.0003H107.367C114.53 53.0402 121.251 49.4586 121.251 41.2496V29.257C121.291 20.8871 114.57 17.2234 107.407 17.2234H107.418ZM177.453 41.2484V28.9342C177.453 24.5086 185.421 23.5014 187.836 27.9282L195.2 24.9626C192.303 18.6047 187.031 16.7535 182.644 16.7535C175.481 16.7535 168.386 20.8985 168.386 28.9582V41.2724C168.386 49.4016 175.458 53.4771 182.47 53.4771C186.976 53.4771 192.371 51.2642 195.359 45.4699L187.472 41.8484C185.541 46.7987 177.452 45.5896 177.452 41.2849L177.453 41.2484ZM153.072 30.6258C150.296 30.0213 148.444 29.0289 148.323 27.286C148.483 23.141 154.882 22.9802 158.626 26.9644L164.541 22.4167C160.838 17.9112 156.653 16.7136 152.336 16.7136C145.778 16.7136 139.419 20.416 139.419 27.4183C139.419 34.2199 144.651 37.8813 150.405 38.7676C153.343 39.1702 156.602 40.3371 156.522 42.3491C156.28 46.1725 148.393 45.9706 144.811 41.6248L139.108 46.9766C142.448 51.2825 146.996 53.4554 151.262 53.4554C157.82 53.4554 165.105 49.6731 165.387 42.7506C165.79 34.018 159.431 31.8052 153.073 30.6372L153.072 30.6258ZM126.107 52.9592H135.122V17.2234H126.107V52.9592ZM278.116 17.2234H264.756V32.2341L273.65 40.2412V25.6641H278.398C281.416 25.6641 282.904 27.1127 282.904 29.4464V40.6062C282.904 42.94 281.495 44.5095 278.398 44.5095H264.716V53.0003H278.119C285.279 53.0391 292 49.4575 292 41.2484V29.257C292 20.8871 285.279 17.2234 278.116 17.2234ZM212.561 16.741C205.156 16.741 197.792 20.7651 197.792 29.0141V41.2188C197.792 49.3879 205.197 53.4919 212.643 53.4919C220.048 53.4919 227.412 49.3856 227.412 41.2188V29.0141C227.412 20.805 219.967 16.741 212.561 16.741ZM218.356 41.2074C218.356 43.7829 215.458 45.1106 212.601 45.1106C209.704 45.1106 206.807 43.8627 206.807 41.2074V29.0027C206.807 26.3872 209.624 24.9785 212.441 24.9785C215.38 24.9785 218.357 26.2264 218.357 29.0027V41.2074H218.356ZM259.765 29.0027C259.564 20.6328 253.85 17.252 246.484 17.252H232.197V52.9877H241.322V41.6385H242.919L251.209 52.9877H262.478L252.74 40.7146C257.046 39.3459 259.743 35.6046 259.743 29.0038L259.765 29.0027ZM246.645 33.8321H241.333V25.6641H246.645C252.32 25.6641 252.32 33.8332 246.645 33.8332V33.8321Z" fill="#DDE0E4"/>
</svg>
