<svg width="292" height="79" viewBox="0 0 292 79" fill="none" xmlns="http://www.w3.org/2000/svg">
<path d="M276.379 37.5653L292 78.9189C287.396 78.2615 282.795 77.4379 278.111 76.696L269.311 53.8466L260.27 74.8098C255.832 74.0679 251.473 73.8208 247.035 73.2447L262.9 37.0737L248.51 0H261.829L269.884 20.7136L278.518 0H291.997L276.379 37.5653ZM237.993 0H225.908V71.6847C229.854 71.9321 233.963 72.095 237.993 72.587V0ZM215.467 70.8615C204.453 70.1221 193.436 69.4672 182.174 69.2173V0.000317596H194.504V57.545C201.575 57.7082 208.643 58.2818 215.467 58.6105V70.8615ZM169.018 28.0346V40.3643H152.166V68.3963H140.003V0H174.529V12.3297H152.169V28.0349H169.021L169.018 28.0346ZM119.283 12.3297V69.054C115.172 69.054 110.981 69.054 106.951 69.2173V12.3297H94.2086V0H132.105V12.3297H119.283ZM80.8924 41.0195C75.4679 41.0195 69.0543 41.0195 64.4508 41.2694V59.5995C71.685 59.105 78.9192 58.5314 86.2347 58.2843V70.1221L52.1211 72.8369V0H86.2325V12.3297H64.4505V28.9368C69.2198 28.9368 76.5356 28.6898 80.8918 28.6898V41.022L80.8924 41.0195ZM12.5746 34.114V77.1905C8.13936 77.685 4.19068 78.2611 0 78.9189V0H11.7565L27.7852 44.8052V0H40.1175V73.8208C35.761 74.5627 31.3207 74.8098 26.6355 75.465L12.5746 34.114Z" fill="#DDE0E4"/>
</svg>
