<svg width="292" height="95" viewBox="0 0 292 95" fill="none" xmlns="http://www.w3.org/2000/svg">
<path d="M47.1659 94.3318C73.2149 94.3318 94.3318 73.2149 94.3318 47.1659C94.3318 21.1169 73.2149 0 47.1659 0C21.1169 0 0 21.1169 0 47.1659C0 73.2149 21.1169 94.3318 47.1659 94.3318Z" fill="#DDE0E4"/>
<path d="M78.6216 47.1659C78.4809 43.3673 75.2919 40.4011 71.4816 40.5301C69.7933 40.5887 68.1872 41.2804 66.9678 42.4411C61.5982 38.7832 55.2907 36.7784 48.8073 36.6377L51.8673 21.924L61.9617 24.0461C62.2431 26.6371 64.5644 28.5129 67.1554 28.2315C69.7464 27.9502 71.6223 25.6288 71.3409 23.0378C71.0595 20.4468 68.7382 18.5709 66.1472 18.8523C64.6582 19.0047 63.3217 19.8723 62.583 21.1619L51.0231 18.8523C50.2376 18.6764 49.4521 19.1688 49.2762 19.9661C49.2762 19.9778 49.2762 19.9778 49.2762 19.9895L45.7942 36.3563C39.2287 36.4618 32.8391 38.4784 27.3992 42.1597C24.6323 39.557 20.2709 39.6859 17.6682 42.4646C15.0654 45.2314 15.1944 49.5928 17.973 52.1955C18.5123 52.6997 19.1337 53.1334 19.8254 53.4383C19.7785 54.13 19.7785 54.8217 19.8254 55.5134C19.8254 66.0768 32.1357 74.6705 47.3183 74.6705C62.501 74.6705 74.8112 66.0885 74.8112 55.5134C74.8581 54.8217 74.8581 54.13 74.8112 53.4383C77.1795 52.2541 78.6685 49.8155 78.6216 47.1659ZM31.4557 51.8907C31.4557 49.288 33.5777 47.1659 36.1805 47.1659C38.7832 47.1659 40.9053 49.288 40.9053 51.8907C40.9053 54.4934 38.7832 56.6155 36.1805 56.6155C33.566 56.592 31.4557 54.4934 31.4557 51.8907ZM58.8548 64.8575C55.5017 67.3782 51.3983 68.6678 47.2011 68.492C43.0039 68.6678 38.9005 67.3782 35.5474 64.8575C35.1019 64.3182 35.1839 63.5092 35.7232 63.0637C36.1922 62.6768 36.8605 62.6768 37.3412 63.0637C40.1784 65.1389 43.637 66.194 47.1542 66.0299C50.6714 66.2175 54.1417 65.2092 57.0141 63.1575C57.53 62.6534 58.3741 62.6651 58.8782 63.181C59.3824 63.6968 59.3707 64.5409 58.8548 65.0451V64.8575ZM58.0107 56.7796C55.4079 56.7796 53.2859 54.6576 53.2859 52.0548C53.2859 49.4521 55.4079 47.33 58.0107 47.33C60.6134 47.33 62.7355 49.4521 62.7355 52.0548C62.841 54.6576 60.8127 56.85 58.21 56.9555C58.1279 56.9555 58.0576 56.9555 57.9755 56.9555L58.0107 56.7796Z" fill="white"/>
<path d="M263.146 32.7805C266.695 32.7805 269.571 29.904 269.571 26.3557C269.571 22.8074 266.695 19.9309 263.146 19.9309C259.598 19.9309 256.722 22.8074 256.722 26.3557C256.722 29.904 259.598 32.7805 263.146 32.7805Z" fill="#DDE0E4"/>
<path d="M172.097 53.6962C174.583 53.872 176.74 51.9962 176.928 49.499C176.94 49.3583 176.94 49.1941 176.94 49.0417C176.904 48.1741 176.799 47.2948 176.623 46.439C175.099 38.3025 168.146 32.3115 159.881 31.9832C150.467 31.9832 142.6 40.6356 142.6 51.2576C142.6 61.8796 150.338 70.5436 159.869 70.5436C164.922 70.743 169.823 68.703 173.223 64.963C174.618 63.4389 174.501 61.0823 172.977 59.6872C172.86 59.5817 172.754 59.4879 172.637 59.4058C171.113 58.4561 169.131 58.6554 167.842 59.8982C165.72 62.0085 162.871 63.2161 159.869 63.3099C154.687 62.8996 150.537 58.843 150.021 53.6493H171.957L172.097 53.6962ZM159.834 39.2404C164.395 39.5452 168.229 42.8045 169.249 47.2714H150.443C151.451 42.7928 155.262 39.5335 159.834 39.2404Z" fill="#DDE0E4"/>
<path d="M142.975 35.7232C142.975 33.9177 141.638 32.3818 139.845 32.1591C135.003 31.3501 130.078 33.1439 126.901 36.8956V36.4266C126.901 34.4218 125.283 32.8039 123.278 32.8039C121.274 32.8039 119.656 34.4218 119.656 36.4266V66.0885C119.609 68.0347 121.098 69.6878 123.044 69.8519C125.025 69.9926 126.761 68.4919 126.889 66.5106C126.901 66.3699 126.901 66.2292 126.889 66.0885V50.8707C126.573 44.7976 131.227 39.6273 137.3 39.299C137.84 39.2639 138.391 39.2756 138.93 39.3342H139.657C141.533 39.1701 142.975 37.6108 142.975 35.7232Z" fill="#DDE0E4"/>
<path d="M266.758 39.6156C266.758 37.6108 265.14 35.9929 263.135 35.9929C261.13 35.9929 259.512 37.6108 259.512 39.6156V66.0768C259.512 68.0816 261.13 69.6995 263.135 69.6995C265.14 69.6995 266.758 68.0816 266.758 66.0768V39.6156Z" fill="#DDE0E4"/>
<path d="M213.296 19.5088C213.296 17.5157 211.678 15.8978 209.685 15.8978C207.692 15.8978 206.074 17.5157 206.074 19.5088V35.688C203.635 33.226 200.282 31.8894 196.824 31.9832C187.409 31.9832 179.542 40.6356 179.542 51.2576C179.542 61.8796 187.292 70.5437 196.824 70.5437C200.341 70.6492 203.741 69.3009 206.238 66.8037C206.801 68.7147 208.805 69.8051 210.717 69.2423C212.159 68.8202 213.19 67.554 213.284 66.0416L213.296 19.5088ZM196.8 63.4037C191.255 63.4037 186.741 58.0106 186.741 51.3397C186.741 44.6687 191.219 39.2756 196.8 39.2756C202.381 39.2756 206.859 44.6687 206.859 51.3397C206.859 58.0106 202.381 63.3451 196.824 63.3451L196.8 63.4037Z" fill="#DDE0E4"/>
<path d="M251.071 19.5088C251.071 17.5157 249.453 15.8978 247.46 15.8978C245.467 15.8978 243.849 17.5157 243.849 19.5088V35.688C241.41 33.226 238.057 31.8894 234.598 31.9832C225.184 31.9832 217.317 40.6356 217.317 51.2576C217.317 61.8796 225.067 70.5437 234.598 70.5437C238.116 70.6492 241.516 69.3009 244.013 66.8037C244.576 68.7147 246.58 69.8051 248.491 69.2423C249.933 68.8202 250.965 67.554 251.059 66.0416L251.071 19.5088ZM234.587 63.4037C229.041 63.4037 224.527 58.0106 224.527 51.3397C224.527 44.6687 229.006 39.2756 234.587 39.2756C240.167 39.2756 244.646 44.6687 244.646 51.3397C244.646 58.0106 240.167 63.3451 234.61 63.3451L234.587 63.4037Z" fill="#DDE0E4"/>
<path d="M285.528 66.0651V39.2404H288.658C290.393 39.3459 291.87 38.0211 291.976 36.2977C291.976 36.2391 291.988 36.1687 291.988 36.0984C292.14 34.3749 290.862 32.8508 289.15 32.6984C289.057 32.6867 288.951 32.6867 288.857 32.6867H285.539V27.7039C285.563 25.7695 284.086 24.1398 282.151 23.964C280.17 23.8233 278.446 25.324 278.306 27.3053C278.294 27.3874 278.294 27.4812 278.294 27.5633V32.7687H275.152C273.417 32.6632 271.939 33.988 271.834 35.7115C271.834 35.7701 271.822 35.8404 271.822 35.9108C271.67 37.6342 272.948 39.1584 274.659 39.3108C274.753 39.3225 274.859 39.3225 274.953 39.3225H278.083V66.0768C278.083 68.0699 279.701 69.6878 281.694 69.6878C283.687 69.8168 285.387 68.2926 285.516 66.2995C285.528 66.2292 285.528 66.1471 285.528 66.0651Z" fill="#DDE0E4"/>
</svg>
